<?xml version="1.0" encoding="utf-8"?>
<!-- Generator: Adobe Illustrator 26.2.1, SVG Export Plug-In . SVG Version: 6.00 Build 0)  -->
<svg version="1.1" id="Capa_1" xmlns="http://www.w3.org/2000/svg" xmlns:xlink="http://www.w3.org/1999/xlink" x="0px" y="0px"
	 viewBox="0 0 595.28 841.89" style="enable-background:new 0 0 595.28 841.89;" xml:space="preserve">
<style type="text/css">
	.st0{fill:#662483;stroke:#FFFFFF;stroke-width:2;stroke-linecap:round;stroke-linejoin:round;stroke-miterlimit:10;}
	.st1{fill:#951B81;stroke:#FFFFFF;stroke-width:2;stroke-linecap:round;stroke-linejoin:round;stroke-miterlimit:10;}
	.st2{fill:#BE1823;stroke:#FFFFFF;stroke-width:2;stroke-linecap:round;stroke-linejoin:round;stroke-miterlimit:10;}
	.st3{fill:#A3195B;stroke:#FFFFFF;stroke-width:2;stroke-linecap:round;stroke-linejoin:round;stroke-miterlimit:10;}
	.st4{fill:#E6007E;stroke:#FFFFFF;stroke-width:2;stroke-linecap:round;stroke-linejoin:round;stroke-miterlimit:10;}
	.st5{fill:#95C11F;stroke:#FFFFFF;stroke-width:2;stroke-linecap:round;stroke-linejoin:round;stroke-miterlimit:10;}
	.st6{fill:#DEDC00;stroke:#FFFFFF;stroke-width:2;stroke-linecap:round;stroke-linejoin:round;stroke-miterlimit:10;}
	.st7{fill:#00A19A;stroke:#FFFFFF;stroke-width:2;stroke-linecap:round;stroke-linejoin:round;stroke-miterlimit:10;}
	.st8{fill:#E94E1B;stroke:#FFFFFF;stroke-width:2;stroke-linecap:round;stroke-linejoin:round;stroke-miterlimit:10;}
	.st9{fill:#008D36;stroke:#FFFFFF;stroke-width:2;stroke-linecap:round;stroke-linejoin:round;stroke-miterlimit:10;}
	.st10{fill:#2FAC66;stroke:#FFFFFF;stroke-width:2;stroke-linecap:round;stroke-linejoin:round;stroke-miterlimit:10;}
	.st11{fill:#29235C;stroke:#FFFFFF;stroke-width:2;stroke-linecap:round;stroke-linejoin:round;stroke-miterlimit:10;}
	.st12{fill:#2D2E83;stroke:#FFFFFF;stroke-width:2;stroke-linecap:round;stroke-linejoin:round;stroke-miterlimit:10;}
	.st13{fill:#E6332A;stroke:#FFFFFF;stroke-width:2;stroke-linecap:round;stroke-linejoin:round;stroke-miterlimit:10;}
	.st14{fill:#1D71B8;stroke:#FFFFFF;stroke-width:2;stroke-linecap:round;stroke-linejoin:round;stroke-miterlimit:10;}
	.st15{fill:#36A9E1;stroke:#FFFFFF;stroke-width:2;stroke-linecap:round;stroke-linejoin:round;stroke-miterlimit:10;}
	.st16{fill:#F39200;stroke:#FFFFFF;stroke-width:2;stroke-linecap:round;stroke-linejoin:round;stroke-miterlimit:10;}
	.st17{fill:#FCEA10;stroke:#FFFFFF;stroke-width:2;stroke-linecap:round;stroke-linejoin:round;stroke-miterlimit:10;}
	.st18{fill:#F9B233;stroke:#FFFFFF;stroke-width:2;stroke-linecap:round;stroke-linejoin:round;stroke-miterlimit:10;}
	.st19{fill:#3AAA35;stroke:#FFFFFF;stroke-width:2;stroke-linecap:round;stroke-linejoin:round;stroke-miterlimit:10;}
	.st20{fill:#006633;stroke:#FFFFFF;stroke-width:2;stroke-linecap:round;stroke-linejoin:round;stroke-miterlimit:10;}
	.st21{fill:#BE1622;stroke:#FFFFFF;stroke-width:2;stroke-linecap:round;stroke-linejoin:round;stroke-miterlimit:10;}
	.st22{fill:#0C0D0D;}
	.st23{fill:#020203;stroke:#0C0D0D;stroke-width:2;stroke-miterlimit:10;}
	.st24{fill:#020203;stroke:#FFFFFF;stroke-width:2;stroke-miterlimit:10;}
</style>
<g>
	<path class="st0" d="M580.37,345.67c-1.55-3.11-66.33-118.15-66.33-118.15L513,261.21L580.37,345.67z"/>
	<polygon class="st1" points="513,338.94 582.96,349.82 513,261.21 	"/>
	<polygon class="st2" points="486.58,516.16 550.83,461.75 487.61,465.89 	"/>
	<path class="st3" d="M513,338.94c0,0,34.2,127.47,37.83,122.81c3.63-4.66,32.13-111.93,32.13-111.93L513,338.94z"/>
	<polygon class="st4" points="550.57,460.71 487.61,465.89 511.45,338.16 	"/>
	<polygon class="st5" points="298.13,439.98 298.82,678.35 369.29,503.55 	"/>
	<polygon class="st5" points="391.4,563.66 299.76,678.78 369.29,503.55 	"/>
	<polygon class="st6" points="482.76,517.89 395.02,560.03 300.36,679.56 	"/>
	<polygon class="st7" points="298.13,301.11 381.73,201.62 407.98,264.49 	"/>
	<path class="st8" d="M389.33,357.07l-92.58,79.46c0,0,72.55,69.78,72.55,67.02S389.33,357.07,389.33,357.07z"/>
	<polygon class="st9" points="514.04,227.53 513,261.21 381.73,201.62 	"/>
	<polygon class="st10" points="406.26,261.73 513,261.21 381.73,201.62 	"/>
	<polygon class="st11" points="512.23,338.42 406.26,261.73 513,261.21 	"/>
	<polygon class="st12" points="510.93,339.97 389.33,357.07 406.26,261.73 513,338.94 	"/>
	<polygon class="st13" points="487.61,465.89 510.93,339.97 389.33,357.07 	"/>
	<polygon class="st14" points="295.36,303.7 298.13,439.98 388.12,359.15 	"/>
	<path class="st15" d="M406.26,261.73L295.36,303.7c0,0,91.2,60.11,92.76,55.45C389.67,354.48,406.26,261.73,406.26,261.73z"/>
	<polygon class="st16" points="369.29,503.55 488.65,467.97 389.33,357.07 	"/>
	<polygon class="st17" points="391.23,561.24 488.65,467.97 486.58,516.16 391.4,563.66 	"/>
	<polygon class="st18" points="369.29,503.55 488.65,467.97 391.4,563.66 	"/>
	<polygon class="st19" points="300.42,437.85 299.73,676.22 229.25,501.42 	"/>
	<polygon class="st20" points="207.14,561.53 300.06,680.34 229.25,501.42 	"/>
	<polygon class="st10" points="119.4,519.38 207.14,561.53 299.4,678.84 	"/>
	<polygon class="st4" points="300.42,298.98 216.82,199.49 190.56,262.36 	"/>
	<path class="st9" d="M209.22,354.94l92.58,79.46c0,0-72.55,69.78-72.55,67.02S209.22,354.94,209.22,354.94z"/>
	<polygon class="st18" points="84.51,225.4 85.54,259.08 216.82,199.49 	"/>
	<path class="st8" d="M18.18,343.54c1.55-3.11,66.33-118.15,66.33-118.15l1.04,33.68L18.18,343.54z"/>
	<polygon class="st13" points="85.54,336.81 15.59,347.69 85.54,259.08 	"/>
	<polygon class="st17" points="192.29,259.6 85.54,259.08 216.82,199.49 	"/>
	<polygon class="st21" points="86.32,336.29 192.29,259.6 85.54,259.08 	"/>
	<polygon class="st3" points="87.62,337.84 209.22,354.94 192.29,259.6 85.54,336.81 	"/>
	<polygon class="st0" points="110.93,463.76 87.62,337.84 209.22,354.94 	"/>
	<polygon class="st20" points="303.18,301.57 300.42,437.85 210.43,357.02 	"/>
	<path class="st1" d="M192.29,259.6l110.89,41.97c0,0-91.2,60.11-92.76,55.45C208.87,352.35,192.29,259.6,192.29,259.6z"/>
	<polygon class="st14" points="229.25,501.42 109.9,465.84 209.22,354.94 	"/>
	<polygon class="st7" points="111.97,514.03 47.72,459.62 110.93,463.76 	"/>
	<polygon class="st15" points="207.32,559.11 109.9,465.84 111.97,514.03 207.14,561.53 	"/>
	<polygon class="st7" points="229.25,501.42 109.9,465.84 207.14,561.53 	"/>
	<path class="st12" d="M85.54,336.81c0,0-34.2,127.47-37.83,122.81c-3.63-4.66-32.13-111.93-32.13-111.93L85.54,336.81z"/>
	<polygon class="st11" points="47.98,458.58 110.93,463.76 87.1,336.03 	"/>
</g>
<g>
	<path class="st22" d="M301.92,240.87c0,0-43.16,0.7-51.52,12.53c-8.35,11.83-14.62,348.78,2.78,362.7
		c17.4,13.92,77.97,20.19,96.07,0c18.1-20.19,15.32-348.78,0.7-364.79C349.96,251.31,329.07,238.08,301.92,240.87z"/>
	<path class="st23" d="M304.2,605.07h-1.68c-35.15,0-63.9-28.76-63.9-63.9V324.37c0-35.15,28.76-63.9,63.9-63.9h1.68
		c35.15,0,63.9,28.76,63.9,63.9v216.79C368.1,576.31,339.34,605.07,304.2,605.07z"/>
	<path class="st24" d="M250.97,441.28c0,0,10.48-72.69,17.03-60.9c6.55,11.79,3.27,103.47,8.51,92.34s1.31-47.81,5.89-47.81
		s4.58,26.2,7.2,19.65c2.62-6.55-1.31-51.08,3.27-40.6c4.58,10.48,3.27,44.53,6.55,41.91c3.27-2.62,2.62-20.3,8.51-21.61
		c5.89-1.31-3.27,65.49,3.27,46.5c6.55-18.99,3.27-89.72,9.17-91.68s-3.27,72.69,3.27,56.98s4.58-53.7,9.17-43.88
		c4.58,9.82-3.27,68.76,0.65,62.87s7.86-45.84,11.13-32.09c3.27,13.75,5.24,20.3,5.89,17.68"/>
</g>
</svg>
